<?xml version="1.0" encoding="UTF-8" standalone="no"?> <!-- Created with Vectornator (http://vectornator.io/) --><!DOCTYPE svg PUBLIC "-//W3C//DTD SVG 1.1//EN" "http://www.w3.org/Graphics/SVG/1.1/DTD/svg11.dtd">
<svg height="100%" stroke-miterlimit="10" style="fill-rule:nonzero;clip-rule:evenodd;stroke-linecap:round;stroke-linejoin:round;" version="1.1" viewBox="0 0 1024 1024" width="100%" xml:space="preserve" xmlns="http://www.w3.org/2000/svg" xmlns:vectornator="http://vectornator.io" xmlns:xlink="http://www.w3.org/1999/xlink">
<metadata>
<vectornator:setting key="IsTimeLapseWatermarkDisabled" value="false"/>
<vectornator:setting key="UndoHistoryDisabled" value="true"/>
<vectornator:setting key="VNDimensionsVisible" value="true"/>
<vectornator:setting key="VNSnapToGuides" value="true"/>
<vectornator:setting key="WDCMYKEnabledKey" value="false"/>
<vectornator:setting key="WDDisplayWhiteBackground" value="false"/>
<vectornator:setting key="WDDynamicGuides" value="false"/>
<vectornator:setting key="WDGuidesVisible" value="true"/>
<vectornator:setting key="WDIsolateActiveLayer" value="false"/>
<vectornator:setting key="WDOutlineMode" value="false"/>
<vectornator:setting key="WDRulersVisible" value="true"/>
<vectornator:setting key="WDSnapToEdges" value="false"/>
<vectornator:setting key="WDSnapToGrid" value="false"/>
<vectornator:setting key="WDSnapToPoints" value="false"/>
<vectornator:setting key="WDUnits" value="Pixels"/>
</metadata>
<defs/>
<g id="Calque-2" vectornator:layerName="Calque 2">
<path d="M1019.24 147.058L877.117 4.93749L577.649 304.405L542.119 268.875L217.273 593.722L430.453 806.902L755.3 482.056L719.77 446.526L1019.24 147.058ZM430.453 664.782L359.393 593.722L542.119 410.996L613.179 482.056L430.453 664.782ZM4.09231 1020.08L146.213 949.022L293.409 806.902L217.273 730.766L75.1525 877.962L4.09231 1020.08Z" fill="#525252" fill-rule="evenodd" opacity="1" stroke="none"/>
</g>
<g id="Calque-2-copier" vectornator:layerName="Calque 2 copier">
<path d="M147.308 4.15034L4.88181 145.964L303.703 446.077L268.096 481.53L592.241 807.076L805.881 594.356L481.736 268.81L446.129 304.263L147.308 4.15034ZM663.761 594.05L592.548 664.957L410.216 481.837L481.43 410.93L663.761 594.05ZM1018.14 1021.18L947.388 878.903L805.585 731.401L729.285 807.372L876.175 949.81L1018.14 1021.18Z" fill="#525252" fill-rule="evenodd" opacity="1" stroke="none"/>
</g>
<g id="Calque-3" vectornator:layerName="Calque 3">
<path d="M456.475 434.952C435.72 488.596 378.793 560.586 378.793 618.035C378.793 651.798 397.661 694.734 455.493 694.734C488.213 694.734 516.853 679.394 516.853 679.394" fill="none" fill-rule="evenodd" opacity="1" stroke="#141414" stroke-linecap="round" stroke-linejoin="round" stroke-width="25.1349"/>
<path d="M606.423 434.922C574.148 434.922 563.011 420.855 563.011 420.855C563.011 420.855 596.513 381.293 661.861 365.723C661.861 379.958 658.64 434.922 606.423 434.922ZM427.283 434.922C459.558 434.922 470.695 420.855 470.695 420.855C470.695 420.855 437.193 381.293 371.844 365.723C371.844 379.958 375.066 434.922 427.283 434.922Z" fill="#000000" fill-rule="evenodd" opacity="1" stroke="#524c5b" stroke-linecap="round" stroke-linejoin="round" stroke-width="2"/>
<path d="M577.231 434.952C597.986 488.596 654.912 560.586 654.912 618.035C654.912 651.798 636.044 694.734 578.213 694.734C545.493 694.734 516.853 679.394 516.853 679.394" fill="none" fill-rule="evenodd" opacity="1" stroke="#141414" stroke-linecap="round" stroke-linejoin="round" stroke-width="25.1349"/>
<path d="M516.853 955.513C516.853 955.513 605.18 947.613 654.912 848.134L654.912 924.834C654.912 924.834 908.666 802.129 869.672 495.315C869.672 495.315 915.692 366.95 915.692 311.235C915.692 100.495 752.459 35.1164 670.252 35.1164C587.463 35.1164 516.853 65.7963 516.853 65.7963M516.853 955.513C516.853 955.513 428.525 947.613 378.793 848.134L378.793 924.834C378.793 924.834 125.04 802.129 164.034 495.315C164.034 495.315 118.014 366.95 118.014 311.235C118.014 100.495 281.247 35.1164 363.453 35.1164C446.243 35.1164 516.853 65.7963 516.853 65.7963" fill="none" fill-rule="evenodd" opacity="1" stroke="#141414" stroke-linecap="round" stroke-linejoin="round" stroke-width="25.1349"/>
<path d="M762.292 710.074C731.612 767.599 681.757 821.289 654.912 848.134M378.793 848.134C356.596 830.447 275.249 748.424 256.074 694.734" fill="none" fill-rule="evenodd" opacity="1" stroke="#141414" stroke-dasharray="4.0" stroke-linecap="round" stroke-linejoin="round" stroke-width="25.1349"/>
<path d="M455.493 587.355C455.493 597.418 455.493 601.084 455.493 602.695C455.493 602.695 520.12 648.714 516.853 648.714C513.585 648.714 578.213 607.419 578.213 602.695C578.213 596.313 578.213 594.181 578.213 587.355C578.213 576.785 547.533 572.229 516.853 572.015C486.173 571.8 455.493 575.911 455.493 587.355Z" fill="#000000" fill-rule="evenodd" opacity="1" stroke="#524c5b" stroke-linecap="round" stroke-linejoin="round" stroke-width="2"/>
<path d="M700.932 280.556C731.612 280.556 731.612 249.876 762.292 249.876C784.474 249.876 808.312 274.634 808.312 311.235C808.312 372.595 739.282 387.935 739.282 387.935" fill="none" fill-rule="evenodd" opacity="1" stroke="#141414" stroke-linecap="round" stroke-linejoin="round" stroke-width="25.1349"/>
<path d="M516.853 293.993C516.853 293.993 566.57 265.216 624.233 265.216C676.312 265.216 738.331 306.818 738.331 375.679C738.331 457.425 677.493 475.588 652.535 575.85M332.773 280.556C305.929 280.556 302.094 249.876 271.414 249.876C249.232 249.876 225.394 274.634 225.394 311.235C225.394 372.595 294.424 387.935 294.424 387.935" fill="none" fill-rule="evenodd" opacity="1" stroke="#141414" stroke-linecap="round" stroke-linejoin="round" stroke-width="25.1349"/>
<path d="M516.853 293.993C516.853 293.993 467.136 265.216 409.473 265.216C357.394 265.216 295.375 306.818 295.375 375.679C295.375 457.425 356.213 475.588 381.171 575.85M593.553 698.569C593.553 731.934 569.392 756.094 536.028 756.094L497.678 756.094C464.314 756.094 440.153 731.934 440.153 698.569" fill="none" fill-rule="evenodd" opacity="1" stroke="#141414" stroke-linecap="round" stroke-linejoin="round" stroke-width="25.1349"/>
<path d="M516.853 111.816L516.853 280.556" fill="none" fill-rule="evenodd" opacity="1" stroke="#000000" stroke-dasharray="4.0" stroke-linecap="round" stroke-linejoin="round" stroke-width="2"/>
</g>
</svg>
